<svg version="1.1" id="Layer_1"
	xmlns="http://www.w3.org/2000/svg"
	xmlns:xlink="http://www.w3.org/1999/xlink" x="0px" y="0px"
	 viewBox="0 0 42.6 46.9" style="enable-background:new 0 0 42.6 46.9;" xml:space="preserve">
	<style type="text/css">
    .st0{fill:#FFFFFF;stroke:#FFFFFF;stroke-miterlimit:10;}
    .st1{fill:#FFFFFF;stroke:#FFFFFF;stroke-width:3;stroke-linecap:round;stroke-linejoin:bevel;stroke-miterlimit:10;}
  </style>
	<path class="st0" d="M16.4,1.5H25c1.3,0,2.3,1,2.3,2.3v19.1c0,1.3-1,2.3-2.3,2.3h-8.6c-1.3,0-2.3-1-2.3-2.3V3.8
	C14.1,2.5,15.2,1.5,16.4,1.5z"/>
	<path class="st0" d="M32.7,19.9H8.6c-1.3,0-1.9,1.7-1,2.7l12.1,13c0.5,0.6,1.4,0.6,2,0l12.1-13C34.6,21.5,33.9,19.9,32.7,19.9z"/>
	<line class="st1" x1="1.8" y1="44.4" x2="39.6" y2="44.4"/>
</svg>
