<?xml version="1.0" encoding="utf-8"?>
<!-- Generator: Adobe Illustrator 21.1.0, SVG Export Plug-In . SVG Version: 6.00 Build 0)  -->
<svg version="1.1" id="Layer_1" xmlns="http://www.w3.org/2000/svg" xmlns:xlink="http://www.w3.org/1999/xlink" x="0px" y="0px"
	 viewBox="0 0 29.8 40.3" style="enable-background:new 0 0 29.8 40.3;" xml:space="preserve">
<style type="text/css">
	.st0{fill:#FFFFFF;}
</style>
<path class="st0" d="M28,18c-2.9-4.8-9.8-4-9.8-4c0-1.8-1.4-10.9-3.2-10.9c-1.8,0-3.2,9.1-3.2,10.9c0,0.2-5.9-1.1-9.8,3.8
	c0,0-0.4,0.8-0.4,1.2v0c0,1.9,1.5,3.5,3.4,3.5h7.2c0.8,0,1.5,0.7,1.6,1.5L15,38.8l1.2-14.7c0.1-0.9,0.8-1.5,1.6-1.5h7.2
	c1.9,0,3.4-1.6,3.4-3.5L28,18z"/>
<path class="st0" d="M20.6,1.5H9.4c-1.8,0-3.1,2.1-2.6,4.1l2.9,10.2c0.4,1.3,1.4,2.2,2.6,2.2h5.2c1.1,0,2.2-0.8,2.6-2.1l3.1-10.2
	C23.7,3.6,22.4,1.5,20.6,1.5z"/>
</svg>
