<svg version="1.1" id="Layer_1"
	xmlns="http://www.w3.org/2000/svg"
	xmlns:xlink="http://www.w3.org/1999/xlink" x="0px" y="0px"
	 viewBox="0 0 37.1 33.6" style="enable-background:new 0 0 37.1 33.6;" xml:space="preserve">
	<style type="text/css">
	.st0{stroke-miterlimit:10;}
</style>
	<path class="st0" d="M8.5,13.1L4.8,2.3l3.3-1.1c1.4-0.5,2.9,0.3,3.3,1.6l2,5.9c0.5,1.4-0.3,2.9-1.6,3.3L8.5,13.1z"/>
	<path class="st0" d="M34.8,29.3l-11-3.1l0.5-1.6c0.7-2.4,3.1-3.7,5.5-3.1l2.5,0.7c2.4,0.7,3.7,3.1,3.1,5.5L34.8,29.3z"/>
	<path class="st0" d="M4.5,2.2c0,0-11,10.2,7.5,24.8c15.5,12.3,23,2.6,23,2.6l-10.5-3.3c0,0-12.9-3.6-14.6-13.4S4.5,2.2,4.5,2.2z"/>
</svg>
