<svg id="Layer_1" data-name="Layer 1"
	xmlns="http://www.w3.org/2000/svg"
	xmlns:xlink="http://www.w3.org/1999/xlink" viewBox="0 0 2256.31 821.34">
	<defs>
		<style>.cls-1{opacity:0.16;}.cls-2{opacity:0.75;}.cls-10,.cls-11,.cls-13,.cls-14,.cls-2,.cls-5,.cls-7,.cls-9{isolation:isolate;}.cls-10,.cls-11,.cls-13,.cls-14,.cls-3,.cls-9{fill:#fff;}.cls-4{fill:#04a6ab;}.cls-5,.cls-6{fill:none;}.cls-5{stroke:#fff;stroke-linecap:round;stroke-linejoin:round;}.cls-5,.cls-9{opacity:0.1;}.cls-7{font-size:17.8px;fill:#807e8e;}.cls-10,.cls-11,.cls-13,.cls-14,.cls-7{font-family: 'Nunito', sans-serif;}.cls-8{letter-spacing:-0.07em;}.cls-10,.cls-13,.cls-14{opacity:0.6;}.cls-10{font-size:19.28px;}.cls-11{font-size:28.18px;}.cls-12{letter-spacing:-0.05em;}.cls-13{font-size:16.84px;}.cls-14{font-size:16.84px;}.cls-15{letter-spacing:-0.04em;}.cls-16{letter-spacing:0em;}.cls-17{letter-spacing:-0.02em;}.cls-18{letter-spacing:-0.04em;}</style>
	</defs>
	<title>experiences</title>
	<g class="cls-1">
		<path class="cls-3" d="M280.3,431.2s92-132.3,131.9-106.2c26.1,17,86,187.2,175,100.1,54-52.9,67.7-100.6,92.2-105.6,42.1-8.5,57.8,78.2,168.1,105.6A540.5,540.5,0,0,0,1024.73,439,128.13,128.13,0,0,0,1127,370.6c17.74-34,42-66.5,61-39.1,33.9,49,115.2,108.8,168.7,93.6s62.7-82.5,84.9-100.1c26.5-21,423.9,92.4,600.4,100.1" transform="translate(-15.69 -25.06)"/>
	</g>
	<path class="cls-4" d="M534.4,454.7a51.15,51.15,0,0,1-5.6-.3c-34.7-4-60.6-44.5-83.5-80.3-12.2-19-23.6-37-34.8-46.5-6.2-5.3-12.3-6.9-18.7-4.8-29.71,9.52-101.15,99.31-108.06,108.71a1.45,1.45,0,0,1-1.52.55h0a1.46,1.46,0,0,1-.88-2.23c9.37-13.9,78.8-99.89,109.56-109.83,7.3-2.4,14.5-.5,21.5,5.4,11.5,9.8,23.1,27.9,35.3,47.2,22.5,35.2,48,75.1,81.3,78.9,18,2.1,36.4-6.4,56.3-25.9,25.7-25.1,42-48.8,55.2-67.9,14.2-20.5,24.4-35.4,37.8-38.1,19.1-3.9,32.6,10.6,51.2,30.6,23.5,25.1,55.6,59.6,117.5,75,133.82,33.31,207.29,10.38,221.5,2.05,59-34.58,70.33-101.83,100.7-105.85,7.2-.9,13.6,2.7,19.2,10.7,17.4,25.2,46.7,52.2,76.5,70.5,34.7,21.3,66.8,29.3,90.5,22.6,34.2-9.7,50.2-41.5,63-67,7.2-14.2,13.4-26.5,21.4-32.9,12.7-10.1,97.2,7.3,234,36.6,129.3,27.7,275.7,59.1,366.6,63.2a.86.86,0,0,1,.8.8l-.1,1.4a.86.86,0,0,1-.8.8c-91.1-4.1-237.7-35.5-367.1-63.2-112.7-24.1-219.2-46.9-231.5-37.2-7.5,6-13.6,18-20.6,31.9-13.1,26-29.4,58.4-64.9,68.5a68.07,68.07,0,0,1-18.7,2.5c-53,0-120.9-52.4-151.6-96.7-5-7.2-10.3-10.3-16.4-9.5-30.2,4-47.89,85.52-101.89,105.18,0,0-15.51,14.42-90.91,14.42a542.28,542.28,0,0,1-130.4-15.9c-62.8-15.6-95.3-50.4-119-75.8-18-19.3-31-33.2-48.5-29.7-12.2,2.5-22.1,16.9-35.9,36.8-13.2,19.2-29.6,43-55.5,68.3C568.9,445.8,551.5,454.7,534.4,454.7Z" transform="translate(-15.69 -25.06)"/>
	<g class="cls-1">
		<path class="cls-3" d="M283,457.7s481.2,110.8,760.2,5c0,0,507.2,111,760.7,0" transform="translate(-15.69 -25.06)"/>
	</g>
	<path class="cls-4" d="M1498.1,512.7c-51.6,0-107-2.6-165.7-7.7-152.2-13.3-276.7-39.8-285-41.5-63.7,24.1-143.6,39.1-237.5,44.6-75.2,4.4-159.6,2.7-250.7-5-155.1-13.1-277.8-39.4-279-39.7a1.49,1.49,0,0,1,.7-2.9c1.2.3,123.7,26.6,278.7,39.7,91,7.7,175.2,9.3,250.3,5,93.8-5.5,173.6-20.5,237-44.6a2.49,2.49,0,0,1,.8-.1c1.3.3,128.5,27.9,285.1,41.6,91.9,8,175.8,9.8,249.4,5.2,91.8-5.7,167.6-21.5,225.3-46.7a1.58,1.58,0,0,1,2,.8,1.54,1.54,0,0,1-.8,2c-58,25.4-134.2,41.2-226.3,46.9C1555.5,511.8,1527.4,512.7,1498.1,512.7Z" transform="translate(-15.69 -25.06)"/>
	<line class="cls-5" x1="258.81" y1="227.24" x2="258.81" y2="623.34"/>
	<line class="cls-5" x1="563.41" y1="227.34" x2="563.41" y2="426.94"/>
	<line class="cls-5" x1="1024.61" y1="227.14" x2="1024.61" y2="623.34"/>
	<line class="cls-5" x1="1278.21" y1="227.24" x2="1278.21" y2="426.94"/>
	<line class="cls-5" x1="1783.91" y1="422.54" x2="1783.91" y2="623.04"/>
	<rect class="cls-3" x="510.31" y="399.84" width="276.5" height="41.5"/>
	<rect class="cls-3" x="785.71" y="399.84" width="239.5" height="41.5"/>
	<rect class="cls-3" x="1024.61" y="399.84" width="255.6" height="41.5"/>
	<path class="cls-3" d="M529.1,466.4H288.4a14.87,14.87,0,0,1-14.9-14.9V439.9A14.87,14.87,0,0,1,288.4,425H529.1Z" transform="translate(-15.69 -25.06)"/>
	<rect class="cls-3" x="1278.21" y="399.84" width="255.6" height="41.5"/>
	<rect class="cls-3" x="1531.81" y="399.84" width="255.6" height="41.5"/>
	<path class="cls-3" d="M2040.6,466.4H1801V424.9h239.6a16.09,16.09,0,0,1,16.1,16.1v9.4A16.07,16.07,0,0,1,2040.6,466.4Z" transform="translate(-15.69 -25.06)"/>
	<rect class="cls-6" x="350.71" y="413.84" width="69.7" height="34.6"/>
	<text class="cls-7" transform="translate(367.31 426.5)">20
		<tspan class="cls-8" x="19.79" y="0">1</tspan>
		<tspan x="28.38" y="0">1</tspan>
	</text>
	<rect class="cls-6" x="625.81" y="414.14" width="69.7" height="34.6"/>
	<text class="cls-7" transform="translate(625.84 426.75)">2012</text>
	<rect class="cls-6" x="874.31" y="414.24" width="69.7" height="34.6"/>
	<text class="cls-7" transform="translate(874.28 426.89)">2013</text>
	<rect class="cls-6" x="1125.61" y="414.24" width="69.7" height="34.6"/>
	<text class="cls-7" transform="translate(1125.58 426.83)">2014</text>
	<rect class="cls-6" x="1386.11" y="414.34" width="69.7" height="34.6"/>
	<text class="cls-7" transform="translate(1386.08 426.96)">2015</text>
	<rect class="cls-6" x="1640.91" y="414.24" width="69.7" height="34.6"/>
	<text class="cls-7" transform="translate(1640.91 426.89)">2016</text>
	<rect class="cls-6" x="1893.21" y="414.34" width="69.7" height="34.6"/>
	<text class="cls-7" transform="translate(1893.24 426.95)">2017</text>
	<path class="cls-9" d="M274.5,185c-13.7,0-24.8,12-24.8,26.9,0,9.9,11,26.3,18.3,36.2a8,8,0,0,0,13.1,0c7.4-9.9,18.3-26.4,18.3-36.2C299.3,197,288.2,185,274.5,185Zm0,44.1a18,18,0,1,1,18-18A18.05,18.05,0,0,1,274.5,229.1Z" transform="translate(-15.69 -25.06)"/>
	<path class="cls-9" d="M579.1,185c-13.7,0-24.8,12-24.8,26.9,0,9.9,11,26.3,18.3,36.2a8,8,0,0,0,13.1,0c7.4-9.9,18.3-26.4,18.3-36.2C603.9,197,592.8,185,579.1,185Zm0,44.1a18,18,0,1,1,18-18A18.05,18.05,0,0,1,579.1,229.1Z" transform="translate(-15.69 -25.06)"/>
	<path class="cls-9" d="M1040.1,185c-13.7,0-24.8,12-24.8,26.9,0,9.9,11,26.3,18.3,36.2a8,8,0,0,0,13.1,0c7.4-9.9,18.3-26.4,18.3-36.2C1065,197,1053.9,185,1040.1,185Zm0,44.1a18,18,0,1,1,18-18A18.05,18.05,0,0,1,1040.1,229.1Z" transform="translate(-15.69 -25.06)"/>
	<path class="cls-9" d="M1293.7,185c-13.7,0-24.8,12-24.8,26.9,0,9.9,11,26.3,18.3,36.2a8,8,0,0,0,13.1,0c7.4-9.9,18.3-26.4,18.3-36.2C1318.6,197,1307.4,185,1293.7,185Zm0,44.1a18,18,0,1,1,18-18A18.05,18.05,0,0,1,1293.7,229.1Z" transform="translate(-15.69 -25.06)"/>
	<path class="cls-9" d="M274.5,715.7c13.7,0,24.8-12,24.8-26.9,0-9.9-11-26.3-18.3-36.2a8,8,0,0,0-13.1,0c-7.4,9.9-18.3,26.4-18.3,36.2C249.6,703.7,260.7,715.7,274.5,715.7Zm0-44.1a18,18,0,1,1-18,18A17.86,17.86,0,0,1,274.5,671.6Z" transform="translate(-15.69 -25.06)"/>
	<path class="cls-9" d="M1040.1,715.7c13.7,0,24.8-12,24.8-26.9,0-9.9-11-26.3-18.3-36.2a8,8,0,0,0-13.1,0c-7.4,9.9-18.3,26.4-18.3,36.2C1015.3,703.7,1026.4,715.7,1040.1,715.7Zm0-44.1a18,18,0,1,1-18,18A18.05,18.05,0,0,1,1040.1,671.6Z" transform="translate(-15.69 -25.06)"/>
	<path class="cls-9" d="M1799.4,715.5c13.7,0,24.8-12,24.8-26.9,0-9.9-11-26.3-18.3-36.2a8,8,0,0,0-13.1,0c-7.4,9.9-18.3,26.4-18.3,36.2C1774.6,703.5,1785.7,715.5,1799.4,715.5Zm0-44.1a18,18,0,1,1-18,18A18.05,18.05,0,0,1,1799.4,671.4Z" transform="translate(-15.69 -25.06)"/>
	<rect class="cls-6" x="161.61" y="49.84" width="223.9" height="93.4"/>
	<text class="cls-10" transform="translate(161.65 65.93)">Store of informatic hardware.</text>
	<rect class="cls-6" x="162.61" y="5.04" width="223.9" height="93.4"/>
	<text class="cls-11" transform="translate(160.65 24.19)">Hardware Store</text>
	<rect class="cls-6" x="2032.41" y="211.74" width="223.9" height="93.4"/>
	<text class="cls-11" transform="translate(2032.4 230.88)">Companies</text>
	<rect class="cls-6" x="152.91" y="726.94" width="247.7" height="46.7"/>
	<text class="cls-11" transform="translate(152.88 746.09)">Obtaining general</text>
	<text class="cls-11" transform="translate(152.88 785.19)">certificate of secondary education</text>
	<rect class="cls-6" x="854.21" y="727.94" width="373.7" height="26.3"/>
	<text class="cls-11" transform="translate(854.18 747.09)">Obtaining Baccaulaureat</text>
	<rect class="cls-6" x="1675.41" y="727.94" width="223.9" height="93.4"/>
	<text class="cls-11" transform="translate(1675.43 747.09)">Obtaining BTS </text>
	<text class="cls-11" transform="translate(1675.43 787.19)">en alternance</text>
	<line class="cls-5" x1="2040.41" y1="422.54" x2="2040.41" y2="623.04"/>
	<path class="cls-9" d="M2056,715.5c13.7,0,24.8-12,24.8-26.9,0-9.9-11-26.3-18.3-36.2a8,8,0,0,0-13.1,0c-7.4,9.9-18.3,26.4-18.3,36.2C2031.1,703.5,2042.2,715.5,2056,715.5Zm0-44.1a18,18,0,1,1-18,18A18.05,18.05,0,0,1,2056,671.4Z" transform="translate(-15.69 -25.06)"/>
	<rect class="cls-6" x="1923.11" y="727.94" width="292.5" height="54"/>
	<text class="cls-11" transform="translate(1923.08 747.09)">Bachelor en
		<tspan class="cls-12" x="150.37" y="0"></tspan>
		<tspan x="156.66" y="0">Alternance</tspan>
	</text>
	<rect class="cls-6" x="455.31" y="49.84" width="382.6" height="93.4"/>
	<text class="cls-13" transform="translate(455.27 66.84)">Publisher of the G8 software dedicated to 
		<tspan x="0" y="20.21">professionals in four sectors of activity: </tspan>
		<tspan x="0" y="40.42">Cycles, two-wheelers motorized</tspan>
		<tspan x="0" y="60.63">pleasure motor and car centers.</tspan>
	</text>
	<text class="cls-14" transform="translate(835.27 66.74)">Allows you to intervene at all stages of the 
		<tspan x="0" y="20.21">life of your company whether it&apos;s being </tspan>
		<tspan x="0" y="40.42">created, being moved or implanted </tspan>
		<tspan x="0" y="60.62">for years.</tspan>
	</text>
	<text class="cls-14" transform="translate(1175.75 66.74)">Founded in 1986, 
		<tspan class="cls-15" x="140.76" y="0">W</tspan>
		<tspan class="cls-16" x="155.04" y="0">aldata is a forerunner of technical analysis in France. </tspan>
		<tspan x="0" y="20.21">The creation of trading methods,</tspan>
		<tspan class="cls-17" x="242.44" y="20.21"></tspan>
		<tspan x="246.79" y="20.21">newsletters, as well as publications </tspan>
		<tspan x="0" y="40.42">and books make </tspan>
		<tspan class="cls-15" x="128.25" y="40.42">W</tspan>
		<tspan x="143.53" y="40.42">aldata a key player in the stock market.</tspan>
	</text>
	<rect class="cls-6" x="455.31" y="5.04" width="223.9" height="30.5"/>
	<text class="cls-11" transform="translate(455.27 24.19)">Futurosoft</text>
	<text class="cls-11" transform="translate(836.46 24.19)">Ldb-rs</text>
	<rect class="cls-6" x="1168.31" y="49.84" width="713.6" height="98.9"/>
	<text class="cls-11" transform="translate(1180.26 24.19)">
		<tspan class="cls-18">W</tspan>
		<tspan x="26.56" y="0">aldata</tspan>
	</text>
	<path class="cls-9" d="M2007.4,154.4c0,9.7-.7,19.8-1.4,29.5s-1.4,19.4-1.4,29.1c0,11.1,4.6,35.4,16.7,35.4h-.6c-12.1,0-16.1,23.5-16.1,36.1,0,10.1.7,20.1,1.4,30.2s1.4,19.8,1.4,29.8c0,31.1-9,45.3-22.1,46.9v.2h3.6c14.5,0,24.7-14,24.7-47.1,0-10.1-.7-19.8-1.4-29.8s-1.4-20.1-1.4-30.2c0-12.3,1.6-31.2,12.9-32.1.3,0,1.2-.2,1.2-3.6s-1.1-3.2-1.4-3.2c-11.3-1.1-12.7-21.7-12.7-32.6,0-9.7.7-19.4,1.4-29.1s1.4-19.8,1.4-29.5c0-36.3-10.6-49.2-24.7-49.2h-3.6v.2C1998.1,106.8,2007.4,120.3,2007.4,154.4Z" transform="translate(-15.69 -25.06)"/>
	<path class="cls-9" d="M173.2,683c0-9.7.7-19.8,1.4-29.5s1.4-19.4,1.4-29.1c0-11.1-4.6-35.4-16.7-35.4h.6c12.1,0,16.1-23.5,16.1-36.1,0-10.1-.7-20.1-1.4-30.2s-1.4-19.8-1.4-29.8c0-31.1,9-45.3,22.1-46.9v-.2h-3.6c-14.5,0-24.7,14-24.7,47.1,0,10.1.7,19.8,1.4,29.8s1.4,20.1,1.4,30.2c0,12.3-1.6,31.2-12.9,32.1-.3,0-1.2.2-1.2,3.6s1.1,3.2,1.4,3.2c11.3,1.1,12.7,21.7,12.7,32.6,0,9.7-.7,19.4-1.4,29.1S167,673.3,167,683c0,36.3,10.6,49.2,24.7,49.2h3.6V732C182.5,730.6,173.2,717.1,173.2,683Z" transform="translate(-15.69 -25.06)"/>
	<rect class="cls-6" x="0.01" y="550.94" width="223.9" height="93.4"/>
	<text class="cls-11" transform="translate(0 570.15)">Diplomas</text>
</svg>