<svg width="51" height="67" viewBox="0 0 51 67" fill="none" xmlns="http://www.w3.org/2000/svg">
<path  d="M25.81 66.64C39.51 66.64 50.61 54.64 50.61 39.74C50.61 29.84 39.61 13.44 32.31 3.53998C31.5721 2.48777 30.5916 1.62884 29.4515 1.03583C28.3114 0.442816 27.0451 0.133179 25.76 0.133179C24.4749 0.133179 23.2086 0.442816 22.0685 1.03583C20.9283 1.62884 19.9479 2.48777 19.21 3.53998C11.81 13.44 0.910004 29.94 0.910004 39.74C0.910004 54.64 12.01 66.64 25.81 66.64ZM25.81 22.54C29.3701 22.54 32.8502 23.5957 35.8103 25.5735C38.7704 27.5514 41.0774 30.3626 42.4398 33.6517C43.8022 36.9407 44.1587 40.56 43.4641 44.0516C42.7696 47.5433 41.0553 50.7506 38.5379 53.2679C36.0206 55.7853 32.8133 57.4996 29.3216 58.1942C25.83 58.8887 22.2108 58.5322 18.9217 57.1699C15.6326 55.8075 12.8214 53.5004 10.8435 50.5403C8.86567 47.5802 7.81 44.1 7.81 40.54C7.79135 38.171 8.2442 35.822 9.14218 33.6297C10.0402 31.4374 11.3653 29.4457 13.0405 27.7705C14.7157 26.0953 16.7074 24.7702 18.8997 23.8722C21.092 22.9742 23.441 22.5213 25.81 22.54Z" />
</svg>
