<svg viewBox="0 0 50 68" fill="none" xmlns="http://www.w3.org/2000/svg">
<path d="M24.81 0.939941C11.11 0.939941 0.0100098 12.9399 0.0100098 27.8399C0.0100098 37.7399 11.01 54.1399 18.31 64.0399C19.0479 65.0922 20.0284 65.9511 21.1685 66.5441C22.3086 67.1371 23.5749 67.4467 24.86 67.4467C26.1451 67.4467 27.4114 67.1371 28.5515 66.5441C29.6917 65.9511 30.6722 65.0922 31.41 64.0399C38.81 54.1399 49.71 37.6399 49.71 27.8399C49.61 12.9399 38.51 0.939941 24.81 0.939941ZM24.81 45.0399C21.2499 45.0399 17.7698 43.9843 14.8097 42.0064C11.8497 40.0285 9.54257 37.2173 8.18019 33.9282C6.81781 30.6392 6.46133 27.02 7.15587 23.5283C7.8504 20.0367 9.56473 16.8294 12.0821 14.312C14.5994 11.7947 17.8067 10.0803 21.2984 9.3858C24.79 8.69127 28.4092 9.04773 31.6983 10.4101C34.9874 11.7725 37.7986 14.0796 39.7765 17.0397C41.7543 19.9998 42.81 23.4799 42.81 27.0399C42.7968 31.8098 40.8962 36.3805 37.5234 39.7533C34.1506 43.1261 29.5799 45.0268 24.81 45.0399Z" />
</svg>
