<svg version="1.1" id="Layer_1"
	xmlns="http://www.w3.org/2000/svg"
	xmlns:xlink="http://www.w3.org/1999/xlink" x="0px" y="0px"
	 viewBox="0 0 29.5 53.8" style="enable-background:new 0 0 29.5 53.8;" xml:space="preserve">
	<style type="text/css">
	.st0{fill:none;stroke:#FFFFFF;stroke-width:2;stroke-miterlimit:10;}
	.st1{fill:none;stroke:#FFFFFF;stroke-width:2;stroke-linecap:round;stroke-linejoin:round;stroke-miterlimit:10;}
</style>
	<path class="st0" d="M14.3,37.5L14.3,37.5c-7.1,0-12.8-5.7-12.8-12.8v-9.2c0-7.1,5.7-12.8,12.8-12.8h0c7.1,0,12.8,5.7,12.8,12.8v9.2
	C27.1,31.8,21.4,37.5,14.3,37.5z"/>
	<path class="st0" d="M14.3,16.7L14.3,16.7c-0.5,0-0.9-0.4-0.9-0.9v-3.2c0-0.5,0.4-0.9,0.9-0.9h0c0.5,0,0.9,0.4,0.9,0.9v3.2
	C15.2,16.3,14.8,16.7,14.3,16.7z"/>
	<polyline class="st1" points="8.4,42.5 14.5,47.5 20.5,42.5 "/>
	<polyline class="st1" points="10.6,48.4 14.5,51.6 18.2,48.4 "/>
</svg>
